HIERARCHY
ROOT Bip001_Pelvis
{
  OFFSET 7.937 94.8971 -8.5489
  CHANNELS 6 Xposition Yposition Zposition Zrotation Xrotation Yrotation
  JOINT Bip001_Spine
  {
    OFFSET 1.44608e-005 10.4157 -0.0118244
    CHANNELS 3 Zrotation Xrotation Yrotation
    JOINT Bip001_L_Thigh
    {
      OFFSET 11.2582 -10.4157 0.0118432
      CHANNELS 3 Zrotation Xrotation Yrotation
      JOINT Bip001_L_Calf
      {
        OFFSET -0.720717 -44.8687 0.366937
        CHANNELS 3 Zrotation Xrotation Yrotation
        JOINT Bip001_L_Foot
        {
          OFFSET -0.664439 -41.3745 -3.62995
          CHANNELS 3 Zrotation Xrotation Yrotation
          JOINT Bip001_L_Toe0
          {
            OFFSET 0.0541047 -10.4146 13.4033
            CHANNELS 3 Zrotation Xrotation Yrotation
            End Site
            {
              OFFSET -1.04503e-005 0 7.70137
            }
          }
        }
      }
    }
    JOINT Bip001_R_Thigh
    {
      OFFSET -11.2582 -10.4156 0.0118122
      CHANNELS 3 Zrotation Xrotation Yrotation
      JOINT Bip001_R_Calf
      {
        OFFSET 0.72059 -44.8687 0.36676
        CHANNELS 3 Zrotation Xrotation Yrotation
        JOINT Bip001_R_Foot
        {
          OFFSET 0.664321 -41.3745 -3.62979
          CHANNELS 3 Zrotation Xrotation Yrotation
          JOINT Bip001_R_Toe0
          {
            OFFSET -0.05417 -10.4146 13.4033
            CHANNELS 3 Zrotation Xrotation Yrotation
            End Site
            {
              OFFSET -1.04873e-005 0 7.70137
            }
          }
        }
      }
    }
    JOINT Bip001_Spine1
    {
      OFFSET 1.90638e-005 14.8539 1.10727
      CHANNELS 3 Zrotation Xrotation Yrotation
      JOINT Bip001_Spine2
      {
        OFFSET 2.28934e-005 14.7848 -1.7233
        CHANNELS 3 Zrotation Xrotation Yrotation
        JOINT Bip001_Neck
        {
          OFFSET 2.24514e-005 15.6905 -0.498826
          CHANNELS 3 Zrotation Xrotation Yrotation
          JOINT Bip001_L_Clavicle
          {
            OFFSET 6.17691 -0.000591152 0.00852867
            CHANNELS 3 Zrotation Xrotation Yrotation
            JOINT Bip001_L_UpperArm
            {
              OFFSET 11.773 -0.0611878 0.00197697
              CHANNELS 3 Zrotation Xrotation Yrotation
              JOINT Bip001_L_Forearm
              {
                OFFSET 26.4515 0.0817568 -2.19579
                CHANNELS 3 Zrotation Xrotation Yrotation
                JOINT Bip001_L_Hand
                {
                  OFFSET 32.8677 0.156744 1.67112
                  CHANNELS 3 Zrotation Xrotation Yrotation
                  JOINT Bip001_L_Finger0
                  {
                    OFFSET 6.16268 -2.25226 6.01674
                    CHANNELS 3 Zrotation Xrotation Yrotation
                    End Site
                    {
                      OFFSET 4.30499 -1.46662 0.618148
                    }
                  }
                  JOINT Bip001_L_Finger1
                  {
                    OFFSET 11.2957 -0.718374 -0.201963
                    CHANNELS 3 Zrotation Xrotation Yrotation
                    End Site
                    {
                      OFFSET 6.31952 -0.405163 -0.0802303
                    }
                  }
                }
              }
            }
          }
          JOINT Bip001_R_Clavicle
          {
            OFFSET -6.17691 -0.000574027 0.00851165
            CHANNELS 3 Zrotation Xrotation Yrotation
            JOINT Bip001_R_UpperArm
            {
              OFFSET -11.773 -0.0611516 0.00194365
              CHANNELS 3 Zrotation Xrotation Yrotation
              JOINT Bip001_R_Forearm
              {
                OFFSET -26.4514 0.0822334 -2.19736
                CHANNELS 3 Zrotation Xrotation Yrotation
                JOINT Bip001_R_Hand
                {
                  OFFSET -32.8677 0.156817 1.67144
                  CHANNELS 3 Zrotation Xrotation Yrotation
                  JOINT Bip001_R_Finger0
                  {
                    OFFSET -6.1627 -2.25224 6.0167
                    CHANNELS 3 Zrotation Xrotation Yrotation
                    End Site
                    {
                      OFFSET -4.30499 -1.46662 0.618134
                    }
                  }
                  JOINT Bip001_R_Finger1
                  {
                    OFFSET -11.2958 -0.718344 -0.201994
                    CHANNELS 3 Zrotation Xrotation Yrotation
                    End Site
                    {
                      OFFSET -6.31952 -0.405146 -0.0802475
                    }
                  }
                }
              }
            }
          }
          JOINT Bip001_Head
          {
            OFFSET 1.11782e-005 11.4912 2.09908
            CHANNELS 3 Zrotation Xrotation Yrotation
            End Site
            {
              OFFSET 2.95144e-005 21.2823 -2.83069e-005
            }
          }
        }
      }
    }
  }
}
MOTION
Frames:	12
Frame Time:	0.04
9.06477 92.804 -9.80036 0.834803 -7.02937 -7.07317 -0.278865 1.86924 -0.554514 5.25026 -8.35034 11.3064 -1.90936 28.0288 0.583223 -2.32506 -13.6204 3.27565 0.860944 -9.5183 1.59998 -7.66682 -11.8814 4.07083 -4.03909 30.58 9.67551 0.551143 -14.3377 -8.5398 1.01254 -11.5001 -1.717 -0.329212 3.74001 -1.0991 -0.329213 3.74003 -1.0991 0.357676 -1.16634 1.56442 -27.4118 8.97148 -18.2585 -52.0276 39.961 6.28623 9.16403 -5.5079 -26.4849 1.32615 -0.720667 -2.14377 -0 0 3.18055e-015 -8.82782e-032 3.18056e-015 1.59028e-015 32.7635 6.39089 10.0906 52.5683 39.2981 -12.8255 14.9351 -42.3358 41.8912 3.33962 -2.54921 -19.6375 8.69683e-017 0 -0 3.72721e-016 -3.97569e-016 -0 -3.19094 -1.67184 2.30493 
9.22671 92.6302 -9.60479 0.914743 -6.44871 -9.53582 -0.232217 1.64575 -0.757321 5.40893 -8.29607 11.4617 -3.15211 28.4338 3.04196 -2.28633 -14.3519 3.53058 0.881588 -9.47473 1.73257 -7.29303 -13.189 5.01076 -5.25713 31.2409 11.0894 0.918893 -14.6018 -7.63541 1.1072 -11.4813 -1.82662 -0.20972 3.29283 -1.50164 -0.20972 3.29285 -1.50164 0.54209 -0.255391 2.15074 -27.1704 8.27048 -18.942 -55.0448 41.2412 9.98502 10.0528 -6.58156 -28.0718 0.506826 -0.612547 -2.88293 6.62086e-032 -4.77083e-015 7.95139e-016 -8.82782e-032 -3.18056e-015 -1.59028e-015 31.4217 4.66359 8.74409 53.4538 30.6264 -14.2572 13.1178 -38.0466 45.8417 3.6595 -1.00686 -22.1473 4.96962e-016 0 -0 2.98177e-016 0 -7.95139e-016 -3.21685 -1.79424 2.94306 
9.40454 92.3815 -9.3145 0.855702 -5.80088 -12.1215 -0.0821592 1.36638 -0.987694 5.7295 -8.30701 12.0184 -4.44078 29.2186 4.38114 -1.95 -15.4169 4.5283 0.820277 -9.41691 2.04726 -7.09681 -14.578 7.32309 -4.93536 32.1966 11.1285 0.924145 -14.9412 -7.1152 1.0666 -11.4643 -1.8676 0.0677938 2.73216 -1.96159 0.0677936 2.73217 -1.96159 0.41153 0.679452 2.73605 -26.8686 7.54825 -19.5159 -57.659 42.2156 13.0653 10.685 -5.58031 -27.9281 0.678073 -0.484695 -1.36523 -8.82781e-032 -3.18055e-015 -1.59028e-015 -8.82782e-032 -3.18056e-015 -1.59028e-015 30.3495 2.48632 6.15557 52.1839 18.092 -16.8765 7.53002 -26.5298 51.3104 3.29972 -0.584149 -22.7297 -3.97569e-016 0 -3.18055e-015 0 3.18056e-015 -0 -2.96243 -1.82706 3.43965 
9.675 91.8103 -8.90217 0.675447 -5.40974 -14.9973 0.165884 1.20992 -1.22905 6.12117 -8.64453 13.2837 -5.55527 31.3992 5.24139 -1.50154 -17.3387 5.5752 0.453993 -9.39065 2.43834 -6.8287 -16.3235 7.86975 -6.04978 34.0381 12.457 1.33272 -15.8702 -5.26688 1.01265 -11.4749 -1.82397 0.475514 2.41484 -2.44537 0.475513 2.41484 -2.44537 0.581683 1.12357 3.32301 -26.0379 7.30064 -20.6048 -61.293 42.3502 16.2118 11.0969 -4.49781 -26.7668 0.90676 -0.421986 -0.0309513 -3.18055e-015 -3.18055e-015 -0 -3.18055e-015 -7.95139e-016 -7.95139e-016 29.1524 0.904225 3.51196 48.1075 5.83831 -21.8975 1.30964 -15.3704 62.7232 1.02943 -0.113976 -21.3445 -3.18055e-015 3.18055e-015 3.18055e-015 -7.15625e-015 3.18056e-015 9.54166e-015 -3.19065 -1.59013 4.12602 
10.0448 90.7311 -8.43008 0.710514 -5.0471 -17.7429 0.434544 1.09027 -1.58272 6.32104 -9.9137 13.217 -7.52174 35.2362 6.57516 -0.353502 -20.2211 7.78602 -0.287627 -9.34914 3.20516 -6.71435 -18.9926 8.93063 -6.96265 37.7259 13.9234 1.3988 -17.778 -3.8199 1.06355 -11.5025 -1.85297 0.851359 2.16902 -3.14993 0.851361 2.16903 -3.14993 1.6862 0.801221 3.85742 -25.4961 7.38748 -20.7158 -65.6725 42.0314 19.6957 11.508 -3.19031 -26.1653 1.06631 -0.303184 0.776045 1.59028e-015 0 -0 -4.13804e-033 3.97569e-016 5.96354e-016 28.3196 0.21824 0.703108 36.3923 -8.76781 -27.3052 -6.04266 -3.14655 75.7531 -0.191917 1.69824 -20.2411 -2.38542e-015 3.18055e-015 -0 -2.38542e-015 0 4.77083e-015 -4.01717 -1.10358 5.16934 
10.4453 89.3792 -7.8397 0.477207 -5.18209 -19.6597 0.906786 1.17319 -2.04884 6.17274 -11.3935 12.7638 -9.66712 39.8471 3.87347 3.31686 -23.2167 14.3975 -1.46794 -9.39684 4.30216 -7.21543 -21.3839 8.92223 -7.65732 41.9249 14.01 1.91644 -20.0101 -0.795267 0.920691 -11.5713 -1.58832 1.50212 2.31999 -4.08632 1.50213 2.31999 -4.08634 2.48036 0.381943 4.32288 -25.4253 7.94571 -21.4217 -69.4406 41.5439 24.1686 12.725 -1.11452 -27.3513 0.47289 -0.210376 1.16067 -1.59028e-015 0 9.93923e-017 -3.18055e-015 0 9.93923e-017 27.3224 -0.152711 -1.52365 21.5826 -20.3387 -31.0476 -11.3567 3.83338 86.8984 -2.43499 4.40721 -19.5996 -6.36111e-015 0 3.18055e-015 -0 0 3.18055e-015 -5.16265 -1.49429 6.08558 
10.9138 88.0895 -7.14836 0.380708 -6.09805 -21.0493 1.09144 1.52528 -2.56387 6.48169 -11.6892 12.8039 -13.0074 43.1753 9.98433 3.32994 -25.9843 12.208 -1.76977 -9.53807 4.11335 -7.85682 -23.0124 9.33352 -8.26578 45.8292 14.6651 2.04294 -22.2769 1.04016 1.06833 -11.64 -1.60298 1.88039 3.00936 -5.11251 1.88039 3.00937 -5.11251 4.028 -0.986959 4.90112 -25.2107 9.07896 -21.381 -73.3913 41.8753 28.4659 14.4801 0.137124 -29.2157 -0.236258 -0.253546 1.23305 4.77083e-015 -1.59028e-015 -5.96354e-016 4.77083e-015 -1.59028e-015 -0 22.9273 0.491171 -4.29093 15.1971 -27.4167 -28.7491 -12.6725 4.40547 93.5847 -9.07158 9.52609 -20.7429 1.2424e-015 0 -0 3.97569e-016 -3.18056e-015 -0 -6.69711 -1.25515 7.38827 
11.3726 86.3886 -6.56322 0.579013 -6.51355 -21.3333 1.20667 1.75175 -2.9508 6.57485 -13.2284 15.0825 -13.4732 48.1581 8.91852 4.92315 -28.9229 13.1232 -2.32903 -9.64123 4.42832 -8.36214 -25.1703 9.69433 -9.44055 50.5832 16.5349 1.71766 -25.1975 1.09416 1.41252 -11.6905 -1.84356 2.08156 3.45126 -5.87755 2.08157 3.45127 -5.87758 5.15442 -1.36574 5.25943 -24.4818 9.17254 -21.6248 -76.2798 43.0917 31.3885 14.1714 -1.52903 -29.7377 -0.140556 -0.284007 -0.205412 1.59028e-015 -3.18055e-015 3.97569e-016 1.59028e-015 0 1.59028e-015 21.1048 0.598943 -5.53962 8.60662 -35.2843 -24.8274 -13.3377 4.92486 98.202 -15.1231 11.5935 -20.1473 7.95139e-016 0 7.95139e-016 1.19271e-015 0 1.19271e-015 -7.58768 -1.69863 8.22005 
11.7748 84.7686 -6.12549 0.902253 -6.69354 -20.7937 1.33837 1.9066 -2.95115 7.02435 -14.7562 15.5246 -16.4443 52.0723 10.0929 6.97241 -31.2892 13.9433 -2.61399 -9.72118 4.57489 -9.22166 -27.0197 10.4038 -9.21511 54.9912 15.9302 1.6766 -27.868 1.36199 1.74607 -11.7573 -2.06467 2.34887 3.75444 -5.87635 2.34887 3.75445 -5.87637 6.12234 -1.95142 4.61878 -24.8754 9.67759 -22.1126 -75.9942 43.2713 31.7808 14.3844 -1.42726 -28.8627 -1.36122 -0.56656 -1.59482 4.41391e-032 3.18055e-015 -7.95139e-016 1.65522e-032 4.77083e-015 -1.98785e-016 20.1612 1.04269 -6.43873 5.78344 -44.5972 -18.0353 -15.9541 4.58563 101.962 -19.2359 9.09042 -17.7367 1.59028e-015 0 3.97569e-016 2.78299e-015 -3.18056e-015 -1.19271e-015 -8.71394 -1.84782 8.04561 
12.0178 83.1863 -5.73256 1.1187 -6.99578 -19.5249 1.4338 2.01176 -2.83882 6.9508 -16.3767 15.9899 -16.9264 56.2987 9.86233 8.20178 -33.5419 14.1455 -3.03477 -9.83744 4.7102 -9.909 -28.1322 10.709 -9.17161 59.0716 16.2636 0.795368 -30.5534 -0.00245523 2.39013 -11.8645 -2.32111 2.57112 3.96173 -5.64467 2.57112 3.96193 -5.64469 6.8619 -2.3223 3.76815 -25.6931 9.85634 -21.8087 -74.1257 42.649 30.9349 14.3493 -2.09536 -28.5061 -1.54208 -0.637788 -0.429306 3.18055e-015 1.59028e-015 2.78299e-015 4.77083e-015 3.18056e-015 1.98785e-015 18.5482 1.57888 -6.39214 12.7647 -52.2081 -4.42017 -17.9203 3.97749 104.588 -24.0457 8.89108 -15.0238 -2.78298e-015 3.18055e-015 2.78298e-015 -4.37326e-015 3.18056e-015 3.57812e-015 -9.74447 -1.87449 7.6101 
12.0974 81.9597 -5.61949 1.6674 -7.13889 -17.2757 1.39039 2.01167 -2.65268 6.97803 -17.9079 15.6558 -18.3394 59.224 9.42466 9.98183 -34.6987 14.9586 -3.22598 -9.91429 4.61714 -10.6968 -28.7091 10.1954 -9.47355 62.2955 16.7215 -0.416497 -32.7544 -2.05404 3.27549 -12.0234 -2.48981 2.60509 3.96544 -5.26943 2.60373 3.96539 -5.26945 6.84306 -2.79842 2.98319 -25.8666 9.97319 -20.94 -69.7853 41.5768 27.6033 13.1867 -2.76764 -28.3247 -0.247297 -0.554231 0.769483 4.77083e-015 -7.95139e-016 5.96354e-016 3.18055e-015 0 -1.78906e-015 17.6808 2.77033 -4.29763 25.4806 -56.0734 13.3088 -22.3359 1.67494 105.718 -26.2578 7.70739 -13.3178 1.59028e-015 3.18055e-015 6.75868e-015 7.95139e-016 0 3.97569e-015 -9.73357 -1.36946 6.84164 
11.9308 81.0719 -5.64503 2.42247 -7.39604 -13.9 1.25844 2.01206 -2.30364 6.159 -19.5017 15.1532 -15.7448 61.8582 6.12286 10.1673 -35.3618 14.3571 -3.22103 -9.94244 4.54532 -11.6493 -28.3776 9.04793 -9.65633 64.8144 16.2098 -1.46871 -34.6482 -4.14603 4.28252 -12.1838 -2.63999 2.51264 3.97559 -4.57861 2.51264 3.9756 -4.57862 6.93552 -2.91521 1.3913 -26.4196 9.65709 -20.27 -65.437 41.8312 23.7831 13.2561 -1.39971 -27.6523 1.6827 -0.121789 0.688629 0 7.95139e-016 -0 3.18055e-015 3.97569e-016 2.28602e-015 15.8434 3.88728 -0.9771 38.9676 -54.0154 30.9433 -25.1385 0.245405 105.181 -30.2825 8.42448 -10.3745 -7.95139e-016 0 -3.97569e-015 -3.18055e-015 0 -3.97569e-016 -10.0123 -1.7102 5.33878 
